<?xml version="1.0" encoding="utf-8"?>
<!-- Generator: Adobe Illustrator 20.0.0, SVG Export Plug-In . SVG Version: 6.00 Build 0)  -->
<svg version="1.1" id="Layer_1" xmlns="http://www.w3.org/2000/svg" xmlns:xlink="http://www.w3.org/1999/xlink" x="0px" y="0px"
	 viewBox="0 0 800 194.3" style="enable-background:new 0 0 800 194.3;" xml:space="preserve">
<style type="text/css">
	.st0{clip-path:url(#SVGID_2_);fill:#009ADA;}
</style>
<g>
	<defs>
		<rect id="SVGID_1_" x="0" width="800" height="194.2"/>
	</defs>
	<clipPath id="SVGID_2_">
		<use xlink:href="#SVGID_1_"  style="overflow:visible;"/>
	</clipPath>
	<path class="st0" d="M178.5,121.1v12.4c0,6.8,1.2,7.7,4.9,7.7h1.7c2.6,0,3.1,0.8,3.1,2.6v9.1c0,2.6-0.6,3.2-3.1,3.2h-36.4
		c-2.3,0-3.2-0.6-3.2-3.2v-9.1c0-1.8,0.6-2.6,3.2-2.6h1.5c5.5,0,7.4-1.2,7.4-7.7V96.8c0-4.8-0.8-6.3-8.7-6.3c-2.3,0-2.9-1.4-2.9-3.4
		v-8.4c0-2.3,0.8-3.1,3.2-3.2l25.6-1.4c2.9,0,3.7,1.2,3.7,4.3v6.4c4.6-8.6,14.1-12.3,25.5-12.3c10.4,0,18.7,4,21.9,15
		c4-10.6,14.4-15,27-15c13.5,0,23.6,6.6,23.6,26.8v35c0,4.8,1.5,7.1,4.6,7.1c2.8,0,3.4-0.6,4.9-0.6c1.1-0.2,1.5,0.2,1.5,1.5v9.2
		c0,1.5-0.3,3.1-2.1,3.7c-2.3,1.1-5.2,1.7-12.4,1.7c-8.1,0-17.3-3.4-17.3-17.6v-37.1c0-7.4-2.9-12.4-10.4-12.4
		c-11.5,0-17.5,11-17.8,29.9v13.8c0,6.8,2,7.7,7.4,7.7h1.7c2.8,0,3.2,0.8,3.2,2.6v9.1c0,2.6-0.6,3.2-3.2,3.2h-36.4
		c-2.5,0-3.1-0.6-3.1-3.2v-9.1c0-1.8,0.5-2.6,3.1-2.6h1.5c3.2,0,4.6-0.9,4.9-5.7v-33.3c0-7.4-2.8-12.4-10.3-12.4
		C184.4,89.8,178.5,101.3,178.5,121.1"/>
	<path class="st0" d="M331.1,72.6c22.2,0,34.7,5.8,34.7,30.5V135c0.2,4.3,1.7,6.4,4.4,6.4c2.9,0,3.4-0.6,4.9-0.6
		c1.1-0.2,1.7,0.2,1.7,1.5v9.2c0,1.5-0.5,3.1-2.1,3.7c-2.5,1.1-5.2,1.7-12.4,1.7c-6.3,0-13-2-16-9.2c-5.5,5.7-14.3,9.2-26.1,9.2
		c-17.5,0-26.5-7.5-26.5-23c0-22.2,18.9-27.3,45.7-27.3h5.5v-4.1c0-10-3.8-14.1-14.1-14.1c-3.4,0-6.9,0.5-10.3,1.4
		c0.2,0.8,0.3,1.7,0.3,2.6c0,7.4-5.7,12.3-12.3,12.3c-6,0-10.9-4.4-10.9-11.5C297.7,78.4,309.4,72.6,331.1,72.6 M325.6,142.2
		c11.7,0,19.3-7.4,19.3-20.2v-1.7h-5.5c-15,0-25,3.1-25,13C314.4,138.7,317.5,142.2,325.6,142.2"/>
	<path class="st0" d="M440,154.8v-6.9c-7.1,7.7-16,10.1-25,10.1c-17.9,0-31.4-9.8-31.4-38.7c0-30.8,14.4-46.3,36.7-46.3
		c8.4,0,14.7,2.3,19.8,6.1v-0.9c0-3.1,0.8-4.3,3.5-4.3l24.5,1.7c2.5,0.2,3.2,0.6,3.2,3.2V87c0,1.8-0.9,2.8-3.2,3.4l-2.3,0.2
		c-3.4,0.9-4.8,1.5-4.9,5.5V153c0,29-17.8,41.3-43.7,41.3c-16.6,0-33.4-4.3-33.4-23.5c0.2-7.1,5.7-12.1,11.8-12.1
		c6,0,11.4,4.5,11.4,11.7c0,2.5-0.6,4.6-1.7,6.4c3.2,1.1,7.2,1.7,11.5,1.7C430.4,178.4,440,172.3,440,154.8 M440,116.2V94.1
		c-2.9-2.5-9-4.8-15.3-4.8c-13.5,0-19.3,11.7-19.3,28.7c0,14.4,4.8,23.9,15.5,23.9C432.8,141.9,438.7,132.6,440,116.2"/>
	<path class="st0" d="M511.8,135c0.3,5.4,2.3,6.1,7.5,6.1h2.1c2.8,0,3.2,0.8,3.2,2.6v9.1c0,2.6-0.8,3.2-3.2,3.2h-40.2
		c-2.5,0-3.2-0.6-3.2-3.2v-9.1c0-1.8,0.5-2.6,3.2-2.6h2.1c5.1,0,7.2-0.8,7.5-6.1V95.6c-0.3-3.7-1.7-4.9-4.9-5.1l-3.5-0.2
		c-2.8-0.2-3.2-1.7-3.2-3.7v-7.8c0-2.8,0.6-3.2,3.2-3.4l25.8-1.4c2.8,0,3.5,1.2,3.5,4.3V135z"/>
	<path class="st0" d="M586.9,111.9l21.9,19.6c7.5,6.7,9.4,9.7,12.7,9.7h2.3c2.3,0,2.6,0.8,2.6,2.8v8.9c0,2.6-0.8,3.2-3.4,3.2h-38.2
		c-2.6,0-3.2-0.6-3.2-3.2v-8c0-2,0.6-3.7,3.2-3.7h1.2c3.4,0,4.4-0.3-0.2-4.3l-21.3-18.4v15c0,6.7,1.4,7.7,5.1,7.7h1.8
		c2.5,0,3.1,0.8,3.1,2.6v9.1c0,2.6-0.8,3.2-3.1,3.2h-36.7c-2.5,0-3.2-0.6-3.2-3.2v-9.1c0-1.8,0.5-2.6,3.2-2.6h1.8
		c5.4,0,7.2-0.9,7.2-7.7V61.7c0-4.6-1.2-6.1-4.8-6.3l-3.1-0.2c-2.8-0.2-3.2-1.7-3.2-3.7v-7.8c0-2.8,0.6-3.2,3.2-3.4l25.3-1.4
		c2.6,0,3.2,1.2,3.2,4.3v70.1L586,95c4-3.2,2.8-4.4-0.2-4.4h-3.7c-2.5,0-2.9-1.5-2.9-3.4v-8.4c0-2.6,0.6-3.2,3.1-3.2h37.3
		c2.5,0,3.1,0.6,3.1,3.2V87c0,1.8-0.5,3.5-3.1,3.5H617c-4.9,0-6,0.6-11.8,5.5L586.9,111.9z"/>
	<path class="st0" d="M700,99.6c0,15.3-10.1,25.9-33.4,25.9c-6.1,0-12.3-0.6-17.8-2c1.7,12.4,7.8,17.8,22.4,17.8
		c8.3,0,16.4-1.5,21-3.4c2.8-1.1,4.8-2.1,6.1-2.1c1.2,0,1.7,0.8,1.7,2.1v9.8c0,1.8-0.6,2.9-3.2,4.3c-6,2.9-17,5.1-27.5,5.1
		c-30.5,0-43.1-17.3-43.1-41.7c0-25.2,13.3-42.8,39.3-42.8C687.6,72.6,700,82.4,700,99.6 M648.5,109.6c5.8,1.2,11.7,2,16.3,2
		c10,0,16.1-3.8,16.1-12.6c0-8.4-5.4-11.8-15.3-11.8C654.9,87.2,649.5,95.2,648.5,109.6"/>
	<path class="st0" d="M718.7,162.4c6.1,0,11.2,4.5,11.2,11.8c0,4.2-1.9,7.8-4.7,9.9h0.6c6.4,0,11.5-3.9,15.2-13.1l3.1-8.9L718,98.1
		c-3.4-7.8-4.2-8.9-9.3-8.9h-0.8c-2.6,0-3.1-1.7-3.1-3.6v-8.4c0-2.6,0.6-3.3,3.1-3.3h38.5c2.5,0,3.1,0.6,3.1,3.3v8.4
		c0,1.9-0.6,3.4-3.1,3.4h-1.1c-4,0-5.7,0.3-5.7,2.3c0,1.2,0.6,3.1,1.6,5.7l13.1,37.3L768,95.9c2-5.6,1.1-6.7-4.7-6.7h-0.9
		c-2.6,0-3.1-1.6-3.1-3.4v-8.5c0-2.6,0.8-3.3,3.1-3.3h34.5c2.5,0,3.1,0.6,3.1,3.3v8.1c0,1.9-0.5,3.7-3.1,3.7h-2.3
		c-3.6,0-5.9,0.6-8.5,7.9l-28,75.2c-6.1,16.6-14.9,22.1-29.7,22.1c-11.7,0-21.3-7.1-21.3-19.3C707.1,168,711.1,162.4,718.7,162.4"/>
	<path class="st0" d="M501.4,64.6C501.4,64.6,501.4,64.6,501.4,64.6L501.4,64.6h-13v-13h0.1c0-7.2,5.8-13,13-13c7.2,0,13,5.8,13,13
		C514.4,58.8,508.6,64.6,501.4,64.6"/>
	<path class="st0" d="M116.3,86.2V54.1c0-18.5-9.3-34.8-23.4-44.5C84.1,3.5,73.6,0,62.2,0C50.7,0,40.1,3.6,31.3,9.7
		c-14,9.8-23.1,26-23.1,44.3v32.2C3,95.3,0,105.8,0,117c0,34.4,27.8,62.2,62.2,62.2c34.4,0,62.2-27.8,62.2-62.2
		C124.4,105.8,121.4,95.3,116.3,86.2 M31.4,54.1c0-17,13.8-30.8,30.8-30.8c16,0,29.2,12.3,30.6,27.9v5.7v5.9
		c-9-5.1-19.5-8.1-30.6-8.1c-11.2,0-21.7,3-30.8,8.1V54.1z M62.3,147.4c0,0-0.1,0-0.1,0v0H31.3v-30.9h0.1c0-17,13.8-30.9,30.9-30.9
		c17,0,30.9,13.8,30.9,30.9C93.1,133.5,79.3,147.4,62.3,147.4"/>
</g>
</svg>
