<?xml version="1.0" encoding="utf-8"?>
<!-- Generator: Adobe Illustrator 20.0.0, SVG Export Plug-In . SVG Version: 6.00 Build 0)  -->
<svg version="1.1" id="Camada_1" xmlns="http://www.w3.org/2000/svg" xmlns:xlink="http://www.w3.org/1999/xlink" x="0px" y="0px"
	 viewBox="0 0 87 23.5" style="enable-background:new 0 0 87 23.5;" xml:space="preserve">
<style type="text/css">
	.st0{fill:#343434;}
	.st1{fill:#FFFFFF;}
	.st2{font-family:'Lato-Black';}
	.st3{font-size:12px;}
</style>
<g>
	<g>
		<path class="st0" d="M85.4,0H74.9c-0.9,0-1.6,0.7-1.6,1.6v20.3c0,0.9,0.7,1.6,1.6,1.6h10.5c0.9,0,1.6-0.7,1.6-1.6V1.6
			C87,0.7,86.3,0,85.4,0L85.4,0z M78.5,1.1h3.3c0.1,0,0.2,0.1,0.2,0.2c0,0.1-0.1,0.2-0.2,0.2h-3.3c-0.1,0-0.2-0.1-0.2-0.2
			C78.3,1.2,78.4,1.1,78.5,1.1L78.5,1.1z M80.2,22.7c-0.4,0-0.8-0.4-0.8-0.8c0-0.4,0.4-0.8,0.8-0.8c0.4,0,0.8,0.4,0.8,0.8
			C80.9,22.3,80.6,22.7,80.2,22.7L80.2,22.7z M85.9,20.5H74.4v-18h11.4V20.5z M85.9,20.5"/>
	</g>
	<g>
		<path class="st1" d="M71.6,3.1c-2.3,0-4.2,1.9-4.2,4.2c0,2.3,1.9,4.2,4.2,4.2c0.5,0,1-0.1,1.5-0.3l2.2,2.2h1.5v1.5h1.5v1.5h2.5
			v-2.5l-5.2-5.2c0.1-0.5,0.2-1,0.2-1.5C75.8,5,73.9,3.1,71.6,3.1L71.6,3.1z M70.3,7.6c-0.8,0-1.5-0.6-1.5-1.5
			c0-0.8,0.6-1.5,1.5-1.5c0.8,0,1.5,0.7,1.5,1.5C71.8,6.9,71.2,7.6,70.3,7.6L70.3,7.6z M70.3,7.6"/>
	</g>
	<g>
		<path class="st0" d="M71.6,3.5c-2,0-3.6,1.6-3.6,3.6c0,2,1.6,3.6,3.6,3.6c0.5,0,0.9-0.1,1.3-0.2l1.9,1.9H76v1.3h1.3v1.3h2.1v-2.1
			L75,8.3c0.1-0.4,0.2-0.8,0.2-1.3C75.2,5.1,73.6,3.5,71.6,3.5L71.6,3.5z M70.6,7.3c-0.7,0-1.3-0.5-1.3-1.3c0-0.7,0.5-1.3,1.3-1.3
			c0.7,0,1.3,0.5,1.3,1.3C71.8,6.7,71.3,7.3,70.6,7.3L70.6,7.3z M70.6,7.3"/>
	</g>
	<g>
		<path class="st0" d="M83.8,19.5h-7.4c-0.4,0-0.8-0.4-0.8-0.8v-1c0-0.4,0.4-0.8,0.8-0.8h7.4c0.4,0,0.8,0.4,0.8,0.8v1
			C84.6,19.2,84.3,19.5,83.8,19.5z M76.5,17.3c-0.2,0-0.5,0.2-0.5,0.5v1c0,0.2,0.2,0.5,0.5,0.5h7.4c0.2,0,0.5-0.2,0.5-0.5v-1
			c0-0.2-0.2-0.5-0.5-0.5H76.5z"/>
	</g>
	<g>
		<circle class="st0" cx="77.8" cy="18.2" r="0.5"/>
		<circle class="st0" cx="79.4" cy="18.2" r="0.5"/>
		<circle class="st0" cx="80.9" cy="18.2" r="0.5"/>
		<circle class="st0" cx="82.5" cy="18.2" r="0.5"/>
	</g>
</g>
<path class="st0" d="M6.7,3.8c-1,0.8-1.3,2-1.2,2.6c0.1,0.8,0.2,1.8,0.2,1.8S5.4,8.3,5.4,9c0.1,1.7,0.7,1,0.8,1.7
	c0.3,1.8,0.9,1.5,0.9,2.5c0,1.6-0.7,2.4-2.8,3.3C2.2,17.5,0,18.6,0,20.6v1h18v-1c0-2-2.2-3.2-4.3-4.1c-2.1-0.9-2.8-1.7-2.8-3.3
	c0-1,0.6-0.7,0.9-2.5c0.1-0.8,0.7,0,0.8-1.7c0-0.7-0.3-0.9-0.3-0.9s0.2-1,0.2-1.8c0.1-0.8-0.4-2.6-2.3-3.1c-0.3-0.3-0.6-0.9,0.5-1.4
	C8.4,1.7,7.9,2.9,6.7,3.8z"/>
<g>
	<path class="st0" d="M39.8,2.9c-3.1,0-5.6,2.5-5.6,5.6c0,3.1,2.5,5.6,5.6,5.6c0.7,0,1.4-0.1,2-0.3l3,3h2v2h2v2h3.3v-3.3L45,10.4
		c0.2-0.7,0.3-1.3,0.3-2C45.4,5.4,42.9,2.9,39.8,2.9L39.8,2.9z M38.2,8.8c-1.1,0-2-0.9-2-2c0-1.1,0.9-2,2-2c1.1,0,2,0.9,2,2
		C40.1,7.9,39.3,8.8,38.2,8.8L38.2,8.8z M38.2,8.8"/>
</g>
<text transform="matrix(1 0 0 1 22.5561 14.8369)" class="st0 st2 st3">+</text>
<text transform="matrix(1 0 0 1 56.6277 14.8369)" class="st0 st2 st3">=</text>
</svg>
